<?xml version="1.0" encoding="iso-8859-1"?>
<!-- Generator: Adobe Illustrator 19.0.0, SVG Export Plug-In . SVG Version: 6.00 Build 0)  -->
<svg version="1.1" id="Layer_1" xmlns="http://www.w3.org/2000/svg" xmlns:xlink="http://www.w3.org/1999/xlink" x="0px" y="0px"
	 viewBox="0 0 512 512" style="enable-background:new 0 0 512 512;" xml:space="preserve">
<g>
	<g>
		<path style="fill:#F3D55B;" d="M317.02,92.705L56.6,353.125l-11.486,13.926L13.242,480.92c0.009,0.009,0.017,0.009,0.026,0.017
			l12.279,11.853c0.026,0.051,0.06,0.102,0.077,0.162l113.545-31.778l13.978-11.511l260.42-260.412L317.02,92.705z"/>
		<polygon style="fill:#F3D55B;" points="384,25.725 353.161,56.564 353.161,56.564 353.22,56.505 353.229,56.505 449.766,153.042 
			449.766,153.042 480.546,122.271 		"/>
		<polygon style="fill:#F3D55B;" points="329.087,80.64 425.625,177.177 425.633,177.186 437.699,165.111 437.699,165.111 
			341.162,68.565 341.153,68.565 		"/>
	</g>
	<g>
		<path style="fill:#805333;" d="M67.496,447.319c-0.384,0-0.777-0.026-1.169-0.077c-4.676-0.64-7.936-4.949-7.296-9.617
			l7.671-55.945c0.64-4.676,4.958-7.962,9.617-7.296c4.668,0.64,7.936,4.949,7.296,9.617l-7.68,55.945
			C75.347,444.221,71.695,447.319,67.496,447.319"/>
		<path style="fill:#805333;" d="M67.471,447.319c-4.198,0-7.851-3.098-8.439-7.373c-0.64-4.668,2.62-8.977,7.296-9.617
			l55.945-7.671c4.634-0.64,8.969,2.62,9.609,7.296c0.649,4.668-2.62,8.969-7.296,9.609l-55.945,7.68
			C68.247,447.293,67.855,447.319,67.471,447.319"/>
	</g>
	<path style="fill:#D75D72;" d="M480.544,25.725c-26.658-26.658-69.888-26.658-96.546,0l96.546,96.546
		C507.202,95.613,507.202,52.383,480.544,25.725"/>
	<g>
		<path style="fill:#F9EBB0;" d="M75.158,391.373c-2.185,0-4.369-0.836-6.033-2.5c-3.337-3.337-3.337-8.73,0-12.066l193.084-193.084
			c3.337-3.337,8.738-3.337,12.066,0c3.337,3.328,3.337,8.73,0,12.066L81.191,388.873C79.527,390.537,77.343,391.373,75.158,391.373
			"/>
		<path style="fill:#F9EBB0;" d="M123.43,439.644c-2.185,0-4.369-0.836-6.033-2.5c-3.337-3.337-3.337-8.73,0-12.066L310.48,231.994
			c3.337-3.337,8.738-3.337,12.066,0c3.337,3.328,3.337,8.73,0,12.066L129.463,437.143
			C127.799,438.807,125.614,439.644,123.43,439.644"/>
		<polygon style="fill:#F9EBB0;" points="449.766,153.044 353.229,56.506 353.22,56.498 341.154,68.564 341.154,68.573 
			437.7,165.11 437.7,165.11 		"/>
		<polygon style="fill:#F9EBB0;" points="425.629,177.181 329.091,80.644 329.083,80.635 317.017,92.701 317.017,92.71 
			413.563,189.248 413.563,189.248 		"/>
		<path style="fill:#F9EBB0;" d="M154.396,448.416l-99.669-93.022l-9.617,11.656L13.238,480.919
			c0.009,0.009,0.017,0.009,0.026,0.017l12.288,11.853c0.017,0.051,0.051,0.102,0.068,0.162l113.545-31.778l13.986-11.512
			L154.396,448.416z"/>
	</g>
	<path style="fill:#464F5D;" d="M36.634,457.569l-23.407,23.407l-4.693,16.759l16.759-4.693L48.7,469.635
		c3.337-3.337,3.337-8.73,0-12.066C45.363,454.232,39.97,454.232,36.634,457.569"/>
	<g>
		<path style="fill:#CB8252;" d="M443.733,497.735c0,4.71-3.823,8.533-8.533,8.533s-8.533-3.823-8.533-8.533
			c0-4.71,3.823-8.533,8.533-8.533S443.733,493.025,443.733,497.735"/>
		<path style="fill:#CB8252;" d="M477.867,497.735c0,4.71-3.823,8.533-8.533,8.533c-4.71,0-8.533-3.823-8.533-8.533
			c0-4.71,3.823-8.533,8.533-8.533C474.044,489.202,477.867,493.025,477.867,497.735"/>
		<path style="fill:#CB8252;" d="M512,497.735c0,4.71-3.823,8.533-8.533,8.533c-4.71,0-8.533-3.823-8.533-8.533
			c0-4.71,3.823-8.533,8.533-8.533C508.177,489.202,512,493.025,512,497.735"/>
		<path style="fill:#CB8252;" d="M213.333,506.269H8.533c-4.71,0-8.533-3.823-8.533-8.533c0-4.71,3.823-8.533,8.533-8.533h204.8
			c4.71,0,8.533,3.823,8.533,8.533C221.867,502.446,218.044,506.269,213.333,506.269"/>
		<path style="fill:#CB8252;" d="M332.8,506.269h-85.333c-4.71,0-8.533-3.823-8.533-8.533c0-4.71,3.823-8.533,8.533-8.533H332.8
			c4.71,0,8.533,3.823,8.533,8.533C341.333,502.446,337.51,506.269,332.8,506.269"/>
		<path style="fill:#CB8252;" d="M401.067,506.269h-34.133c-4.71,0-8.533-3.823-8.533-8.533c0-4.71,3.823-8.533,8.533-8.533h34.133
			c4.71,0,8.533,3.823,8.533,8.533C409.6,502.446,405.777,506.269,401.067,506.269"/>
	</g>
</g>
<g>
</g>
<g>
</g>
<g>
</g>
<g>
</g>
<g>
</g>
<g>
</g>
<g>
</g>
<g>
</g>
<g>
</g>
<g>
</g>
<g>
</g>
<g>
</g>
<g>
</g>
<g>
</g>
<g>
</g>
</svg>
