<?xml version="1.0" encoding="iso-8859-1"?>
<!-- Generator: Adobe Illustrator 19.0.0, SVG Export Plug-In . SVG Version: 6.00 Build 0)  -->
<svg version="1.1" id="Layer_1" xmlns="http://www.w3.org/2000/svg" xmlns:xlink="http://www.w3.org/1999/xlink" x="0px" y="0px"
	 viewBox="0 0 512 512" style="enable-background:new 0 0 512 512;" xml:space="preserve">
<g>
	<g>
		<polygon style="fill:#B0BAC1;" points="423.724,472.276 494.345,472.276 494.345,251.586 423.724,251.586 		"/>
		<polygon style="fill:#B0BAC1;" points="17.655,472.276 158.897,472.276 158.897,251.586 17.655,251.586 		"/>
	</g>
	<g>
		<polygon style="fill:#899ABF;" points="52.966,392.828 123.586,392.828 123.586,286.897 52.966,286.897 		"/>
		<polygon style="fill:#899ABF;" points="423.724,392.828 459.034,392.828 459.034,286.897 423.724,286.897 		"/>
	</g>
	<polygon style="fill:#434C6D;" points="79.448,392.828 97.103,392.828 97.103,286.897 79.448,286.897 	"/>
	<polygon style="fill:#D35F5F;" points="291.31,83.862 132.414,172.138 132.414,216.276 291.31,128 450.207,216.276 
		450.207,172.138 	"/>
	<polygon style="fill:#E8EDEE;" points="291.31,128 158.897,201.56 158.897,472.276 423.724,472.276 423.724,201.56 	"/>
	<polygon style="fill:#FF7E7A;" points="132.414,172.138 291.31,83.862 450.207,172.138 450.207,198.621 494.345,198.621 
		476.69,39.724 35.31,39.724 17.655,198.621 132.414,198.621 	"/>
	<g>
		<polygon style="fill:#B54D4D;" points="132.414,216.276 132.414,198.621 0,198.621 0,251.586 158.897,251.586 158.897,201.56 		
			"/>
		<polygon style="fill:#B54D4D;" points="450.207,198.621 450.207,216.276 423.724,201.56 423.724,251.586 512,251.586 512,198.621 
					"/>
	</g>
	<polygon style="fill:#26B99A;" points="238.345,472.276 344.276,472.276 344.276,313.379 238.345,313.379 	"/>
	<path style="fill:#198C71;" d="M317.793,401.655h-8.828c-4.882,0-8.828-3.955-8.828-8.828c0-4.873,3.946-8.828,8.828-8.828h8.828
		c4.882,0,8.828,3.955,8.828,8.828C326.621,397.7,322.675,401.655,317.793,401.655"/>
	<g>
		<polygon style="fill:#434C6D;" points="17.655,445.793 158.897,445.793 158.897,428.138 17.655,428.138 		"/>
		<polygon style="fill:#434C6D;" points="423.724,445.793 494.345,445.793 494.345,428.138 423.724,428.138 		"/>
	</g>
	<path style="fill:#899ABF;" d="M344.276,260.414H238.345v-17.655c0-29.255,23.711-52.966,52.965-52.966
		c29.255,0,52.966,23.711,52.966,52.966V260.414z"/>
</g>
<g>
</g>
<g>
</g>
<g>
</g>
<g>
</g>
<g>
</g>
<g>
</g>
<g>
</g>
<g>
</g>
<g>
</g>
<g>
</g>
<g>
</g>
<g>
</g>
<g>
</g>
<g>
</g>
<g>
</g>
</svg>
